<svg id="Layer_1" data-name="Layer 1" xmlns="http://www.w3.org/2000/svg" viewBox="0 0 374.21 114.5"><defs><style>.cls-1{fill:#a7a9ac;}.cls-2{fill:#231f20;}.cls-3{fill:#faa41a;}</style></defs><title>IEEE-CS_LogoTM-orange</title><path class="cls-1" d="M123,124.84l-.23,0a1.11,1.11,0,0,1-.85-1.32L145.79,11.23a1.1,1.1,0,0,1,1.31-.86,1.12,1.12,0,0,1,.86,1.32L124,124A1.11,1.11,0,0,1,123,124.84Z" transform="translate(-10.76 -10.35)"/><path class="cls-2" d="M173.9,39.09c-2.69,0-3.38,0-6.19.09L167.6,39c0-2.55,0-5.08.06-7.61,0-1.62.05-3.23.05-4.85,0-2.5-.05-4.35-.17-7.39l.14-.14c2.79,0,3.38,0,6.17-.08l.11.14c-.08,2.84-.14,4.54-.14,7.81,0,4,.08,8.06.2,12Z" transform="translate(-10.76 -10.35)"/><path class="cls-2" d="M184.35,30.8v3.92c2.22,0,4.29-.06,7.21-.17l.17.17-.28,4.2-.26.17c-3.89,0-4.54,0-5.39,0-3.12,0-4.74.06-7.44.12l-.14-.2c.08-3.27.11-5,.11-8.89,0-6.82-.06-8-.2-10.88l.17-.17h12.78l.14.11L191,23.07l-.18.14h-6.56v3.61l6.22-.11.17.2-.22,3.72-.2.17Z" transform="translate(-10.76 -10.35)"/><path class="cls-2" d="M200.9,30.8v3.92c2.22,0,4.29-.06,7.21-.17l.18.17-.29,4.2-.25.17c-3.9,0-4.55,0-5.4,0-3.12,0-4.74.06-7.44.12l-.14-.2c.08-3.27.11-5,.11-8.89,0-6.82-.06-8-.2-10.88l.17-.17h12.78l.14.11-.19,3.92-.17.14h-6.57v3.61l6.22-.11.17.2L207,30.63l-.2.17Z" transform="translate(-10.76 -10.35)"/><path class="cls-2" d="M217.45,30.8v3.92c2.22,0,4.29-.06,7.22-.17l.17.17-.29,4.2-.25.17c-3.89,0-4.55,0-5.4,0-3.12,0-4.74.06-7.44.12l-.14-.2c.08-3.27.11-5,.11-8.89,0-6.82-.06-8-.2-10.88l.17-.17h12.78l.15.11-.2,3.92-.17.14h-6.57v3.61l6.23-.11.16.2-.22,3.72-.2.17Z" transform="translate(-10.76 -10.35)"/><path class="cls-2" d="M174.83,55.36a8.33,8.33,0,0,0-3.8-1,8.18,8.18,0,0,0-7.23,4.22A8.78,8.78,0,0,0,162.71,63a8.89,8.89,0,0,0,1.09,4.35,8.23,8.23,0,0,0,3,3.13A8.08,8.08,0,0,0,171,71.58a8.87,8.87,0,0,0,3.72-.88,11.83,11.83,0,0,0,3.38-2.36l3.63,3.94a16.43,16.43,0,0,1-5.13,3.59,14.59,14.59,0,0,1-13.22-.53,13.54,13.54,0,0,1-5.15-5.09A14.16,14.16,0,0,1,156.39,63a13.64,13.64,0,0,1,7.16-12.18,15.31,15.31,0,0,1,13.25-.61,14.93,14.93,0,0,1,4.92,3.34L178.13,58A10.43,10.43,0,0,0,174.83,55.36Z" transform="translate(-10.76 -10.35)"/><path class="cls-2" d="M205.49,50.85a14,14,0,0,1,0,24.49,15.87,15.87,0,0,1-14.91,0,13.74,13.74,0,0,1-7.22-12.27,13.6,13.6,0,0,1,1.93-7.16,13.78,13.78,0,0,1,5.27-5.06,16.14,16.14,0,0,1,14.93,0Zm-11.59,4.7a8.49,8.49,0,0,0-3.09,3.15,8.84,8.84,0,0,0,3.11,11.94,7.94,7.94,0,0,0,4.19,1.17,7.83,7.83,0,0,0,4.16-1.15,8.47,8.47,0,0,0,3-3.16,9,9,0,0,0,1.11-4.43,8.79,8.79,0,0,0-1.11-4.37,8.52,8.52,0,0,0-3-3.15,7.92,7.92,0,0,0-4.16-1.15A8.2,8.2,0,0,0,193.9,55.55Z" transform="translate(-10.76 -10.35)"/><path class="cls-2" d="M217.16,49.45H224l8.51,16.78L241,49.45h6.84V76.77h-5.55V58.31L234.49,74h-4l-7.8-15.69V76.77h-5.55Z" transform="translate(-10.76 -10.35)"/><path class="cls-2" d="M273.92,51.92a8.8,8.8,0,0,1,2.85,7,9.57,9.57,0,0,1-2.87,7.4C272,68.08,269.3,69,265.84,69h-5.43v7.81h-6.17V49.45h11.6C269.32,49.45,272,50.27,273.92,51.92Zm-4.39,10.7a4.36,4.36,0,0,0,1.38-3.49,4.21,4.21,0,0,0-1.38-3.42,6.11,6.11,0,0,0-4-1.15h-5.12v9.25h5.12A6,6,0,0,0,269.53,62.62Z" transform="translate(-10.76 -10.35)"/><path class="cls-2" d="M288.46,70.11a5.87,5.87,0,0,0,4.43,1.7,5.66,5.66,0,0,0,4.29-1.68,6.43,6.43,0,0,0,1.6-4.64v-16H305v16a12.65,12.65,0,0,1-1.46,6.22,10,10,0,0,1-4.2,4.06,13.75,13.75,0,0,1-6.44,1.43,14,14,0,0,1-6.48-1.43,9.93,9.93,0,0,1-4.25-4.06,12.45,12.45,0,0,1-1.49-6.22v-16h6.17v16A6.3,6.3,0,0,0,288.46,70.11Z" transform="translate(-10.76 -10.35)"/><path class="cls-2" d="M308.19,49.45H331v5.23h-8.35V76.77H316.5V54.68h-8.31Z" transform="translate(-10.76 -10.35)"/><path class="cls-2" d="M334.73,49.45h20.81v5.11H340.9v5.93h13.15V65.6H340.9v6.06H356v5.11H334.73Z" transform="translate(-10.76 -10.35)"/><path class="cls-2" d="M378,76.77,373.65,69h-6.29v7.81H361.2V49.45h11.86q5.35,0,8.28,2.47a8.7,8.7,0,0,1,2.93,7A10.6,10.6,0,0,1,383,64.34a8.4,8.4,0,0,1-3.81,3.41l5.82,9Zm-10.62-13h5.7a5.91,5.91,0,0,0,4-1.19,4.33,4.33,0,0,0,1.39-3.49A4.18,4.18,0,0,0,377,55.71a6,6,0,0,0-4-1.15h-5.7Z" transform="translate(-10.76 -10.35)"/><path class="cls-2" d="M162.34,94a13.48,13.48,0,0,0-4-.76,4.87,4.87,0,0,0-2.54.58,1.91,1.91,0,0,0-.93,1.72,2.4,2.4,0,0,0,1.34,2.21,21,21,0,0,0,4.16,1.58A36.21,36.21,0,0,1,165,101a8.08,8.08,0,0,1,3.1,2.46,6.79,6.79,0,0,1,1.29,4.33,7.46,7.46,0,0,1-1.39,4.51,8.51,8.51,0,0,1-3.81,2.87,14.58,14.58,0,0,1-5.5,1,18.89,18.89,0,0,1-6.52-1.17,17.66,17.66,0,0,1-5.54-3.2l2.46-5a16.78,16.78,0,0,0,4.76,3,12.76,12.76,0,0,0,4.92,1.13,5.44,5.44,0,0,0,3-.7,2.28,2.28,0,0,0,1.07-2,2.31,2.31,0,0,0-.72-1.74,5.71,5.71,0,0,0-1.84-1.11c-.74-.28-1.76-.61-3.06-1a33.4,33.4,0,0,1-4.59-1.57,8.06,8.06,0,0,1-3.06-2.38,6.55,6.55,0,0,1-1.29-4.25,7.16,7.16,0,0,1,1.33-4.31,8.36,8.36,0,0,1,3.7-2.85,14.21,14.21,0,0,1,5.55-1,19.06,19.06,0,0,1,5.54.82A18.85,18.85,0,0,1,169.19,91l-2.38,5.11A21,21,0,0,0,162.34,94Z" transform="translate(-10.76 -10.35)"/><path class="cls-2" d="M194.25,89.88a14,14,0,0,1,0,24.5,15.95,15.95,0,0,1-14.91,0,13.89,13.89,0,0,1-5.29-5.08,13.95,13.95,0,0,1,5.27-19.42,16.14,16.14,0,0,1,14.93,0Zm-11.59,4.71a8.46,8.46,0,0,0-3.09,3.14,8.73,8.73,0,0,0-1.13,4.37,8.61,8.61,0,0,0,1.15,4.41,8.75,8.75,0,0,0,3.09,3.16,7.92,7.92,0,0,0,4.19,1.18,7.84,7.84,0,0,0,4.16-1.16,8.3,8.3,0,0,0,3-3.16,8.89,8.89,0,0,0,1.12-4.43A8.72,8.72,0,0,0,194,97.73a8.38,8.38,0,0,0-3-3.14,7.83,7.83,0,0,0-4.16-1.15A8.1,8.1,0,0,0,182.66,94.59Z" transform="translate(-10.76 -10.35)"/><path class="cls-2" d="M221.71,94.39a8.32,8.32,0,0,0-3.81-1,8.2,8.2,0,0,0-7.22,4.21,8.7,8.7,0,0,0-1.09,4.33,8.85,8.85,0,0,0,1.09,4.36,8.27,8.27,0,0,0,3,3.12,8,8,0,0,0,4.21,1.15,8.73,8.73,0,0,0,3.73-.88,11.64,11.64,0,0,0,3.38-2.36l3.63,3.94a16.43,16.43,0,0,1-5.13,3.59,14.25,14.25,0,0,1-5.92,1.33,14.64,14.64,0,0,1-7.3-1.85,13.63,13.63,0,0,1-5.15-5.1,14.13,14.13,0,0,1-1.87-7.22,13.64,13.64,0,0,1,7.16-12.18,15.12,15.12,0,0,1,7.4-1.83,14.81,14.81,0,0,1,5.85,1.23,14.63,14.63,0,0,1,4.92,3.34L225,97A10.47,10.47,0,0,0,221.71,94.39Z" transform="translate(-10.76 -10.35)"/><path class="cls-2" d="M232.7,88.48h6.16V115.8H232.7Z" transform="translate(-10.76 -10.35)"/><path class="cls-2" d="M245.3,88.48h20.81v5.11H251.47v5.94h13.16v5.11H251.47v6h15.07v5.11H245.3Z" transform="translate(-10.76 -10.35)"/><path class="cls-2" d="M269.08,88.48h22.83v5.23h-8.35V115.8h-6.17V93.71h-8.31Z" transform="translate(-10.76 -10.35)"/><path class="cls-2" d="M318.73,88.48l-10,18.5v8.82h-6.16v-8.66L292.5,88.48h6.2l7,12.25,6.83-12.25Z" transform="translate(-10.76 -10.35)"/><path class="cls-3" d="M64.32,16.86c-29.58,0-53.56,21.94-53.56,49s24,49,53.56,49,53.57-21.94,53.57-49S93.91,16.86,64.32,16.86ZM72.5,89.41c0,6.42.46,6.64,5,6.94l4.62.27.2.1a2.79,2.79,0,0,1,1.17,2.83,2.33,2.33,0,0,1-1.63,2.12l-.14,0h-.15c-3.63-.17-10-.26-16.92-.26-7.34,0-13.66.09-17.35.26h-.14l-.15,0a2.34,2.34,0,0,1-1.63-2.12,2.79,2.79,0,0,1,1.17-2.83l.2-.1,4.63-.27c4.48-.3,4.93-.52,4.94-7-17.64-2-28.64-10.52-28.64-22.88S37.11,46.09,54,43.85c.06,1.61.11,3.77.14,6.25a25.24,25.24,0,0,0-2.89.9l-.44.16a11,11,0,0,0-7,7.14l0,.11a23.38,23.38,0,0,0-.95,7.82v.3a23.38,23.38,0,0,0,.95,7.82l.05.13a10.64,10.64,0,0,0,4.75,6c3.32,2.21,9.67,3.35,16,3.35,6.89,0,13.83-1.36,16.81-4a10.71,10.71,0,0,0,3.81-5.41l0-.11a23.38,23.38,0,0,0,1-7.82v-.3a23.38,23.38,0,0,0-1-7.82l0-.11a11,11,0,0,0-6.93-7.12L77.79,51a28,28,0,0,0-5.29-1.44V80.92a43.82,43.82,0,0,1-8,.69,43.11,43.11,0,0,1-8.28-.75V73.6c.14-6.76.29-17.49.12-25.07h0c0-.18-.13-5.32-.13-5.49,0-5-.51-5.49-4.24-5.9l-5.25-.61a2.65,2.65,0,0,1-1.39-2.36,2.63,2.63,0,0,1,1.07-2.49l.19-.12.22,0c3.84-.46,8.69-1.31,13.64-2.41,2.61-.63,5-1.42,6.81-2a12.74,12.74,0,0,1,3-.81A2.54,2.54,0,0,1,72.78,28l.06.2,0,.22c-.2,1.83-.32,5.64-.32,10.19v4.94c18.39,1.78,28.75,9.92,28.75,23C101.25,78.89,90.21,87.45,72.5,89.41Z" transform="translate(-10.76 -10.35)"/><path class="cls-3" d="M95.42,111.82h5.29v1H98.64v5.85H97.48v-5.85H95.42Zm6.31,0h1.35l2.26,4.64,2.24-4.64H109v6.87h-1.06v-5.23L105.71,118H105l-2.17-4.51v5.23h-1.06Z" transform="translate(-10.76 -10.35)"/></svg>